<?xml version="1.0" standalone="no"?>
<!DOCTYPE svg PUBLIC "-//W3C//DTD SVG 20010904//EN"
 "http://www.w3.org/TR/2001/REC-SVG-20010904/DTD/svg10.dtd">
<svg version="1.0" xmlns="http://www.w3.org/2000/svg"
 width="1280.000000pt" height="1280.000000pt" viewBox="0 0 1280.000000 1280.000000"
 preserveAspectRatio="xMidYMid meet">
<metadata>
Created by potrace 1.16, written by Peter Selinger 2001-2019
</metadata>
<g transform="translate(0.000000,1280.000000) scale(0.100000,-0.100000)"
fill="#000000" stroke="none">
<path d="M8175 8774 c63 -47 165 -162 165 -186 0 -4 -19 -8 -42 -8 l-41 0 39
-28 c42 -31 134 -129 134 -143 0 -5 -23 0 -50 11 -72 28 -76 26 -37 -22 40
-50 77 -120 77 -145 -1 -16 -2 -16 -12 2 -14 25 -36 42 -68 53 l-26 9 24 -71
c29 -90 38 -151 23 -160 -7 -5 -19 10 -32 41 -92 213 -169 346 -231 398 -35
30 -123 75 -147 75 -8 0 6 -22 30 -49 24 -26 53 -59 64 -72 12 -13 34 -34 50
-45 l30 -21 -49 7 -50 7 30 -21 c16 -11 48 -39 72 -60 37 -34 41 -42 28 -51
-13 -10 -10 -17 25 -51 22 -21 50 -51 60 -66 l20 -28 -32 7 -33 6 21 -34 c38
-62 63 -109 63 -120 0 -5 -42 27 -92 71 -103 90 -168 126 -261 146 -127 27
-210 12 -321 -59 -59 -38 -71 -58 -22 -36 44 21 40 3 -12 -45 -71 -66 -76 -97
-8 -47 51 39 127 81 145 81 5 0 1 -18 -10 -40 -33 -68 -21 -70 47 -5 82 78
225 155 162 88 -29 -32 -58 -85 -58 -108 0 -12 11 -9 53 15 31 17 68 30 88 30
l34 0 -32 -20 c-18 -11 -33 -24 -33 -29 0 -5 24 -12 54 -15 62 -8 133 -41 152
-71 13 -20 11 -20 -59 -22 -155 -2 -261 -76 -308 -216 l-18 -52 -118 -8 c-65
-4 -161 -5 -213 -2 -52 3 -123 6 -158 7 -105 2 -109 -33 -7 -66 108 -35 182
-122 379 -443 58 -95 106 -179 106 -187 0 -15 -228 -340 -294 -420 -66 -78
-118 -108 -228 -131 -19 -4 -28 -12 -28 -25 0 -11 3 -20 8 -21 4 -1 121 -2
260 -3 233 -1 255 0 263 17 8 14 5 19 -16 27 -15 6 -34 10 -43 10 -33 1 -102
39 -113 63 -10 21 -6 35 20 88 34 70 200 310 217 316 27 9 234 -342 234 -396
0 -37 -35 -68 -88 -77 -34 -5 -42 -10 -42 -28 l0 -22 344 -1 c273 -2 345 1
349 11 8 20 -5 33 -43 41 -92 19 -165 83 -277 240 -93 132 -213 325 -213 344
0 33 29 103 125 296 51 105 98 202 104 217 14 37 80 77 149 91 60 12 74 21 65
44 -4 9 -26 13 -75 13 -77 0 -82 12 -13 29 60 15 88 0 156 -82 29 -34 56 -64
61 -66 11 -4 -15 51 -44 92 -11 15 -16 27 -11 27 19 0 54 -34 99 -95 26 -36
50 -63 52 -60 2 2 -6 34 -18 70 -12 36 -20 68 -17 71 8 8 56 -55 84 -110 15
-28 38 -82 52 -120 15 -38 32 -71 39 -74 16 -5 10 21 -28 136 -15 45 -26 82
-24 82 2 0 19 -30 38 -67 40 -78 42 -78 20 -2 -58 195 -171 294 -346 307 -75
5 -79 6 -55 18 43 23 148 44 220 44 37 0 67 3 67 7 0 4 -12 20 -27 36 l-28 30
45 -27 c75 -45 158 -86 175 -86 23 0 18 31 -13 81 -47 74 -47 76 -1 24 24 -27
70 -77 102 -110 l59 -60 -6 45 c-3 25 -9 62 -12 83 -4 23 -3 37 4 37 21 0 99
-68 157 -137 32 -40 61 -70 63 -68 3 2 -14 36 -37 74 -22 38 -41 74 -41 80 0
15 26 14 80 -4 25 -8 66 -21 93 -29 87 -28 48 2 -102 77 -192 96 -296 129
-423 135 -105 5 -178 -13 -267 -63 -24 -14 -46 -24 -48 -22 -10 11 89 84 163
119 46 22 84 44 84 48 0 4 -19 11 -42 14 -43 7 -43 7 -18 21 42 24 122 48 180
54 l55 7 -75 38 c-41 21 -77 40 -79 42 -8 8 7 14 54 23 51 10 103 0 180 -34
l40 -17 -28 30 c-16 17 -27 38 -25 48 4 24 59 37 136 32 47 -3 58 -1 45 7 -11
6 -83 10 -173 10 -220 0 -299 -26 -452 -151 -80 -65 -83 -67 -89 -43 -4 13 -7
56 -8 94 -4 226 -75 361 -234 440 -74 37 -132 49 -92 19z m-99 -971 c-34 -50
-33 -59 7 -35 56 35 143 57 171 44 31 -14 41 -57 26 -112 l-11 -41 -123 7
c-82 4 -125 3 -130 -4 -13 -21 6 -40 50 -51 52 -13 84 -42 84 -75 0 -43 -71
-162 -168 -285 l-35 -43 -63 98 c-35 55 -80 132 -100 171 -46 91 -41 113 33
132 26 7 54 15 61 17 17 5 15 33 -3 40 -48 19 37 139 120 170 15 6 13 -1 -12
-29 -18 -21 -33 -47 -33 -58 0 -18 4 -16 27 12 28 32 113 92 121 85 2 -3 -8
-22 -22 -43z"/>
<path d="M4517 7258 c-3 -7 -31 -76 -62 -153 -31 -77 -95 -241 -142 -365 -103
-275 -118 -302 -185 -336 -33 -17 -47 -29 -41 -35 10 -10 300 -15 310 -6 11
11 -9 27 -33 27 -27 0 -84 49 -84 72 0 20 28 127 46 176 l16 43 140 -3 141 -3
29 -75 c16 -41 32 -98 35 -126 5 -46 3 -53 -18 -68 -13 -9 -33 -16 -46 -16
-21 0 -40 -16 -30 -26 4 -4 300 -7 420 -4 9 0 17 5 17 10 0 6 -8 13 -17 16
-90 29 -90 30 -226 369 -58 143 -129 316 -159 385 -47 110 -57 125 -80 128
-14 2 -28 -3 -31 -10z m43 -425 c18 -46 31 -85 28 -88 -3 -3 -55 -4 -115 -3
l-110 3 56 143 56 143 26 -58 c14 -32 40 -95 59 -140z"/>
<path d="M3365 7240 c-10 -17 3 -27 45 -34 69 -11 70 -18 70 -388 0 -178 -5
-341 -10 -363 -10 -43 -32 -65 -64 -65 -23 0 -53 -16 -45 -24 7 -8 439 -10
446 -2 11 11 -19 26 -53 26 -18 0 -42 9 -55 19 -23 19 -24 24 -27 190 l-3 171
88 0 c272 0 398 80 397 250 -1 119 -66 190 -202 219 -68 14 -578 15 -587 1z
m498 -68 c55 -31 72 -66 72 -142 0 -60 -4 -74 -30 -112 -40 -57 -101 -88 -177
-88 l-58 0 0 179 0 180 38 4 c58 7 123 -1 155 -21z"/>
<path d="M5065 7239 c-10 -15 1 -22 47 -34 26 -6 49 -21 62 -38 20 -27 21 -42
24 -320 2 -161 1 -316 -3 -345 -8 -69 -36 -101 -93 -109 -24 -3 -42 -11 -42
-18 0 -16 21 -25 46 -20 11 2 179 4 374 4 l356 1 23 135 c31 185 20 210 -44
100 -45 -77 -95 -129 -150 -158 -31 -16 -63 -22 -140 -24 -57 -2 -106 0 -115
6 -13 9 -15 60 -18 338 -3 337 0 398 21 427 7 10 37 23 66 29 30 7 56 18 59
25 5 16 -463 18 -473 1z"/>
<path d="M5930 7232 c0 -13 13 -23 47 -33 28 -9 54 -25 67 -42 20 -27 21 -40
21 -361 0 -378 0 -375 -77 -397 -45 -13 -65 -25 -56 -34 3 -3 77 -6 164 -7
129 -1 159 2 159 13 0 8 -15 16 -38 20 -21 3 -48 16 -60 28 -22 21 -22 29 -25
339 -2 174 -1 314 1 312 2 -3 86 -164 187 -358 100 -194 187 -351 193 -349 6
2 19 23 28 48 10 24 43 108 73 186 74 190 196 476 208 488 15 14 0 -619 -15
-652 -7 -16 -24 -28 -54 -36 -28 -7 -43 -16 -41 -25 3 -12 41 -14 218 -13 239
2 281 12 171 39 -19 4 -44 20 -55 36 -20 26 -21 39 -21 354 0 365 3 384 61
408 19 8 43 14 54 14 13 0 20 7 20 20 0 20 -5 20 -172 18 l-172 -3 -44 -110
c-42 -105 -201 -476 -207 -483 -6 -7 -90 146 -205 372 l-115 226 -157 0 c-146
0 -158 -1 -158 -18z"/>
<path d="M3363 6243 c15 -4 17 -18 17 -113 0 -105 -1 -109 -22 -113 -13 -2 28
-5 90 -6 l112 -1 0 43 0 42 -18 -35 c-16 -33 -21 -35 -69 -38 l-53 -3 0 55 c0
54 1 56 26 56 18 0 28 -6 32 -22 5 -19 6 -20 12 -4 3 10 4 34 1 54 -4 33 -5
34 -11 12 -4 -18 -14 -26 -33 -28 -26 -3 -27 -2 -27 47 l0 51 50 0 c44 0 51
-3 64 -27 l15 -28 1 33 0 32 -102 -1 c-57 -1 -95 -3 -85 -6z"/>
<path d="M3933 6243 c15 -4 17 -18 17 -113 0 -105 -1 -109 -22 -113 -13 -2 9
-4 47 -4 39 0 60 2 48 4 -20 4 -23 11 -23 52 l0 48 47 6 c32 3 53 12 65 27 24
30 23 46 -7 75 -22 23 -31 25 -107 24 -46 -1 -75 -3 -65 -6z"/>
<path d="M4422 6238 c8 -7 35 -61 59 -120 24 -59 47 -108 50 -108 4 0 15 23
25 50 10 28 21 50 24 50 3 0 14 -22 24 -50 10 -27 21 -50 25 -50 4 0 25 48 47
107 21 59 45 113 52 120 11 11 8 13 -20 12 -18 -1 -25 -3 -15 -6 13 -3 16 -10
12 -21 -4 -10 -18 -48 -33 -86 l-25 -69 -23 52 c-25 56 -21 93 13 119 14 10
-6 12 -107 12 -101 0 -121 -2 -108 -12z"/>
<path d="M4797 6243 c22 -4 23 -8 21 -113 -2 -101 -4 -109 -23 -113 -11 -2 28
-5 86 -6 l107 -1 7 36 c8 45 -1 56 -15 18 -14 -37 -26 -44 -77 -44 l-43 0 0
55 c0 52 1 55 25 55 17 0 29 -7 35 -22 7 -18 9 -11 9 32 1 51 0 53 -12 30 -7
-14 -23 -26 -35 -28 -20 -3 -22 1 -22 47 l0 51 43 0 c47 0 58 -6 75 -35 11
-18 12 -17 9 10 l-4 30 -104 1 c-57 1 -94 0 -82 -3z"/>
<path d="M5058 6243 c21 -4 22 -8 22 -113 0 -105 -1 -109 -22 -113 -13 -2 6
-4 42 -4 36 0 55 2 43 4 -21 4 -23 10 -23 59 0 53 1 54 28 54 38 0 52 -17 52
-61 0 -39 11 -53 49 -62 18 -4 21 -3 12 6 -6 6 -11 24 -11 40 0 20 -10 38 -31
58 -22 20 -26 29 -15 29 20 0 56 35 56 55 0 8 -9 24 -20 35 -17 17 -32 20
-112 19 -51 -1 -83 -4 -70 -6z"/>
<path d="M5493 6243 c15 -4 17 -18 17 -113 0 -105 -1 -109 -22 -113 -13 -2 0
-4 27 -4 28 0 40 2 28 4 -22 4 -23 8 -23 116 l0 112 75 -112 c41 -61 79 -114
85 -118 7 -4 10 31 10 109 0 101 2 115 18 119 9 3 -3 5 -28 4 -25 0 -35 -2
-22 -4 20 -4 22 -10 22 -79 0 -41 -2 -74 -4 -74 -2 0 -27 36 -56 80 l-53 80
-46 -1 c-25 -1 -38 -3 -28 -6z"/>
<path d="M6293 6243 c15 -4 17 -18 17 -113 0 -105 -1 -109 -22 -113 -13 -2 0
-4 27 -4 28 0 40 2 28 4 -22 4 -23 8 -23 116 l0 112 78 -117 c42 -65 80 -118
85 -118 4 0 7 51 7 114 0 101 2 115 18 119 9 3 -3 5 -28 4 -25 0 -35 -2 -22
-4 20 -4 22 -10 22 -79 0 -41 -2 -74 -4 -74 -2 0 -28 36 -57 80 l-52 80 -46
-1 c-25 -1 -38 -3 -28 -6z"/>
<path d="M6573 6243 c15 -4 17 -18 17 -113 0 -95 -2 -109 -17 -113 -10 -3 2
-5 27 -4 25 0 35 2 23 4 -22 4 -23 8 -22 116 0 90 2 108 12 94 7 -10 44 -64
82 -120 l70 -102 3 117 c2 100 5 117 20 121 9 3 -3 5 -28 4 -25 0 -35 -2 -22
-4 20 -4 22 -10 22 -81 l0 -76 -56 82 -56 82 -47 -1 c-25 -1 -38 -3 -28 -6z"/>
<path d="M7541 6208 l1 -43 11 33 c6 21 18 34 34 38 13 4 26 5 28 3 3 -4 8
-153 6 -201 -1 -9 -11 -19 -23 -21 -13 -2 9 -4 47 -4 39 0 60 2 48 4 -22 4
-23 8 -23 114 l0 109 25 0 c18 0 30 -10 45 -37 12 -21 19 -30 16 -20 -3 10 -6
30 -6 43 0 24 -1 24 -105 24 l-105 0 1 -42z"/>
<path d="M8223 6243 c15 -4 17 -18 17 -113 0 -95 -2 -109 -17 -113 -10 -3 2
-5 27 -4 25 0 35 2 23 4 -22 4 -23 8 -23 114 0 60 2 109 4 109 2 0 39 -53 82
-117 l79 -118 3 117 c2 100 5 117 20 121 9 3 -1 5 -23 5 -22 0 -32 -2 -22 -5
14 -4 17 -17 17 -81 l0 -77 -55 83 -55 82 -48 -1 c-26 -1 -39 -3 -29 -6z"/>
</g>
</svg>
